<svg
   version="1.1"
   xmlns="http://www.w3.org/2000/svg"
   viewBox="2 2 16 16"
   width="12"
   height="12" >
<g
   id="g1"
   transform="matrix(0.03906094,0,0,0.03906094,2.4023477e-4,2.4023477e-4)">
	<path
   d="M 301.258,256.01 502.645,54.645 c 12.501,-12.501 12.501,-32.769 0,-45.269 -12.501,-12.501 -32.769,-12.501 -45.269,0 v 0 L 256.01,210.762 54.645,9.376 c -12.501,-12.501 -32.769,-12.501 -45.269,0 -12.5,12.501 -12.501,32.769 0,45.269 L 210.762,256.01 9.376,457.376 c -12.501,12.501 -12.501,32.769 0,45.269 12.501,12.5 32.769,12.501 45.269,0 L 256.01,301.258 457.375,502.645 c 12.501,12.501 32.769,12.501 45.269,0 12.501,-12.501 12.501,-32.769 0,-45.269 z"
   id="path1" />
</g>
</svg>
