<?xml version="1.0" ?>

<!-- Uploaded to: SVG Repo, www.svgrepo.com, Generator: SVG Repo Mixer Tools -->
<svg width="26px" height="26px" viewBox="0 0 20 20" version="1.1" xmlns="http://www.w3.org/2000/svg">

<g id="layer1">

<path d="M 9.0488281 0 L 0 6.8183594 L 0 20 L 20 20 L 20 6.8183594 L 10.951172 0 L 9.0488281 0 z M 9.6230469 1 L 10.376953 1 L 19.001953 7.5 L 11.990234 12.783203 L 10.951172 12 L 9.0488281 12 L 8.0097656 12.783203 L 0.99804688 7.5 L 9.6230469 1 z M 1 8.7539062 L 7.1796875 13.410156 L 1 18.066406 L 1 8.7539062 z M 19 8.7539062 L 19 18.066406 L 12.820312 13.410156 L 19 8.7539062 z M 9.6230469 13 L 10.376953 13 L 18.337891 19 L 1.6621094 19 L 9.6230469 13 z "/>

</g>

</svg>