<?xml version="1.0" ?>
<svg width="26px" height="26px" viewBox="0 0 35 35" xmlns="http://www.w3.org/2000/svg"><path d="M12,33.81a1.24,1.24,0,0,1-.33,0L1.17,30.92a1.26,1.26,0,0,1-.92-1.21V2.35a1.26,1.26,0,0,1,.49-1,1.28,1.28,0,0,1,1.09-.21L12.34,4a1.25,1.25,0,0,1-.66,2.41L2.75,4V28.75l9.59,2.6A1.25,1.25,0,0,1,12,33.81Z"/><path d="M33.5,33.9a1.24,1.24,0,0,1-.33,0L22.66,31a1.25,1.25,0,0,1-.92-1.21V2.44a1.23,1.23,0,0,1,.49-1,1.25,1.25,0,0,1,1.09-.22L33.83,4.08a1.26,1.26,0,0,1,.92,1.21V32.65a1.26,1.26,0,0,1-.49,1A1.3,1.3,0,0,1,33.5,33.9Zm-9.26-5,8,2.17V6.25l-8-2.18Z"/><path d="M12.31,33.9a1.3,1.3,0,0,1-.76-.25,1.26,1.26,0,0,1-.49-1V5.29A1.26,1.26,0,0,1,12,4.08L22.49,1.23a1.25,1.25,0,1,1,.66,2.42l-9.59,2.6V31l8.93-2.42A1.25,1.25,0,1,1,23.15,31L12.64,33.86A1.24,1.24,0,0,1,12.31,33.9Z"/></svg>